<svg xmlns="http://www.w3.org/2000/svg" width="1000" height="1000" viewBox="0 0 1000 1000" version="1.1"><path d="M 214.307 353.226                C 148.970 505.457, 147 510.529, 147 511.067                C 182.063 487.723, 186 484.437, 186 483.945                C 210.356 426.189, 214.196 418.406, 215.046 418.259                C 229.379 449.168, 243.394 481.674, 244.302 482.813                C 245.112 483.828, 273.778 503.130, 280.857 507.427                C 282.449 508.393, 281.850 505.942, 278.920 499.500                C 217.875 357.450, 215.639 352.377, 215.513 352.226                C 215.388 352.075, 214.845 352.525, 214.307 353.226 M 349.078 436.215  C 328.170 481.900, 323.050 495.063, 323.032 495.750  C 323.010 496.620, 324.900 497, 329.255 497  L 335.510 497 337.837 491  L 340.163 485 349.113 485  C 359.564 485, 360.172 484.437, 357.135 477.573  C 355.160 473.107, 355.005 473, 350.556 473  C 347.473 473, 346 472.578, 346 471.693  C 346 468.810, 352.673 453.495, 354.038 453.245  C 355.085 453.052, 357.950 459.150, 364.135 474.738  L 372.770 496.500 378.885 496.798  C 383.513 497.023, 385 496.765, 385 495.739  C 385 492.874, 362.704 439.389, 360.657 437.346  C 357.250 433.944, 352.985 433.527, 349.078 436.215 M 400.413 436.367 C 400.116 437.139, 400.015 439.735, 400.187 442.136 L 400.500 446.500 424 446.500 L 447.500 446.500 447.500 441 L 447.500 435.500 424.226 435.232 C 404.987 435.010, 400.858 435.206, 400.413 436.367 M 463.406 436.386 C 463.113 437.148, 463.015 439.735, 463.187 442.136 L 463.500 446.500 481.988 447 L 500.476 447.500 501.776 450.215 C 502.659 452.060, 502.803 453.982, 502.226 456.215 L 501.376 459.500 482.438 460 L 463.500 460.500 463.227 478.801 L 462.954 497.101 468.727 496.801 L 474.500 496.500 474.781 484.250 L 475.062 472 482.439 472 L 489.816 472 496.695 484.250 L 503.575 496.500 509.787 496.798 C 515.091 497.052, 516 496.846, 516 495.390 C 516 494.453, 513.300 489.066, 510 483.420 C 506.700 477.774, 504.010 472.783, 504.022 472.328 C 504.034 471.872, 505.469 470.825, 507.212 470 C 511.969 467.747, 514.222 462.445, 514.222 453.500 C 514.222 444.553, 512.051 439.569, 506.965 436.842 C 503.961 435.230, 501.054 435, 483.734 435 C 467.786 435, 463.834 435.269, 463.406 436.386 M 542.604 436.038 C 538.658 437.219, 534.310 441.587, 532.773 445.915 C 531.933 448.281, 531.500 455.279, 531.500 466.500 C 531.500 482.633, 531.627 483.755, 534 488.500 C 537.982 496.464, 540.098 497.121, 560.672 496.783 C 577.426 496.507, 577.909 496.439, 580.517 494 C 586.148 488.733, 586.500 487.115, 586.500 466.500 C 586.500 444.110, 585.642 441.165, 577.980 437.250 C 574.001 435.217, 572.222 435.008, 559.538 435.086 C 551.817 435.133, 544.197 435.562, 542.604 436.038 M 602.406 436.386 C 602.113 437.148, 602.015 439.735, 602.187 442.136 L 602.500 446.500 612.750 446.785 L 623 447.070 623 470.453 C 623 483.314, 623.273 494.548, 623.607 495.418 C 624.057 496.590, 625.612 497, 629.607 497 L 635 497 635 472 L 635 447 644.800 447 C 655.819 447, 657 446.419, 657 441 C 657 439.020, 656.460 436.860, 655.800 436.200 C 653.925 434.325, 603.129 434.501, 602.406 436.386 M 671.628 436.527 C 670.829 438.608, 670.818 443.362, 671.607 445.418 C 672.130 446.781, 674.754 447, 690.572 447 C 707.698 447, 708.999 447.130, 709.965 448.934 C 711.370 451.559, 711.273 457.327, 709.800 458.800 C 708.954 459.646, 703.204 460, 690.319 460 C 672.192 460, 672.033 460.019, 671.483 462.250 C 671.178 463.488, 671.057 471.700, 671.214 480.500 L 671.500 496.500 677.250 496.800 L 683 497.100 683 484.550 L 683 472 690.750 472.019 L 698.500 472.037 705.415 484.519 L 712.329 497 718.106 497 C 721.283 497, 724.172 496.531, 724.526 495.958 C 724.880 495.385, 722.431 490.223, 719.085 484.486 C 715.738 478.749, 713.017 473.480, 713.039 472.777 C 713.060 472.075, 714.520 470.592, 716.283 469.483 C 721.029 466.497, 722.487 462.740, 722.487 453.500 C 722.487 444.582, 721.142 440.897, 716.680 437.590 C 714.067 435.654, 712.327 435.478, 693.058 435.195 C 674.541 434.923, 672.187 435.070, 671.628 436.527 M 740.406 436.386 C 740.113 437.148, 740.015 439.735, 740.187 442.136 L 740.500 446.500 762.874 446.769 C 778.537 446.958, 785.661 446.696, 786.624 445.897 C 787.381 445.269, 788 443.272, 788 441.459 C 788 434.697, 789.134 435, 763.862 435 C 745.248 435, 740.837 435.261, 740.406 436.386 M 805.223 436.557 C 803.011 438.105, 803 438.264, 803 467.557 L 803 497 808.500 497 L 814 497 814 476.500 C 814 460.762, 814.290 456.002, 815.250 456.009 C 815.938 456.014, 819.343 463.184, 822.817 471.943 C 826.292 480.701, 829.810 488.427, 830.635 489.112 C 833.044 491.111, 841.442 490.812, 843.843 488.641 C 844.974 487.618, 848.477 480.306, 851.629 472.391 C 854.959 464.027, 857.912 458, 858.679 458 C 859.724 458, 860 461.739, 860 475.918 C 860 485.773, 860.273 494.548, 860.607 495.418 C 861.057 496.592, 862.616 497, 866.650 497 L 872.085 497 871.793 467.418 C 871.454 433.196, 872.029 435, 861.464 435 C 856.857 435, 854.922 435.440, 853.768 436.750 C 852.921 437.712, 849.180 446.262, 845.456 455.750 C 841.662 465.414, 838.128 473, 837.420 473 C 836.710 473, 833.209 465.440, 829.433 455.750 C 825.735 446.262, 821.825 437.712, 820.744 436.750 C 818.175 434.463, 808.386 434.341, 805.223 436.557 M 545.611 448.532 C 543.326 450.817, 542.795 455.358, 543.165 469.448 C 543.484 481.573, 543.617 482.276, 545.958 484.170 C 548.163 485.953, 549.643 486.124, 560.291 485.829 C 570.668 485.541, 572.344 485.255, 573.583 483.559 C 574.657 482.087, 575 477.971, 575 466.531 C 575 446.211, 575.625 447, 559.515 447 C 549.735 447, 546.822 447.321, 545.611 448.532 M 401.978 462.730 C 399.974 465.256, 399.820 466.344, 400.230 475.088 C 400.733 485.810, 402.638 491.008, 407.321 494.435 C 409.933 496.347, 411.524 496.500, 428.821 496.500 L 447.500 496.500 447.805 491.169 C 448.269 483.062, 448.138 483, 430.533 483 C 413.317 483, 412 482.481, 412 475.695 L 412 472.047 429.227 471.774 L 446.454 471.500 447.420 468.750 C 448.042 466.981, 448.041 465.019, 447.420 463.250 L 446.453 460.500 425.315 460.230 L 404.176 459.961 401.978 462.730 M 741.913 462.087 C 739.957 464.043, 739.816 465.069, 740.152 474.857 C 740.566 486.871, 742.110 490.810, 747.952 494.747 C 751.109 496.874, 752.287 497, 769.041 497 C 784.300 497, 786.871 496.778, 787.393 495.418 C 788.438 492.695, 788.055 485.455, 786.800 484.200 C 785.972 483.372, 780.883 483, 770.371 483 C 753.072 483, 752 482.589, 752 475.952 L 752 472.047 769.250 471.774 L 786.500 471.500 786.500 466 L 786.500 460.500 765.270 460.230 C 744.767 459.970, 743.967 460.033, 741.913 462.087 M 317 523.500 L 317 526 604 526 L 891 526 891 523.500 L 891 521 604 521 L 317 521 317 523.500 M 386.455 555.455 C 381.195 560.714, 384.766 565.347, 395.750 567.517 C 399.379 568.234, 400.016 570.386, 397.066 571.965 C 394.112 573.546, 391.541 573.213, 388.556 570.865 C 386.013 568.865, 385.736 568.836, 384.171 570.413 C 382.609 571.986, 382.663 572.220, 385 574.011 C 388.147 576.422, 394.669 577.463, 398.198 576.118 C 399.681 575.552, 401.680 573.892, 402.638 572.429 C 404.204 570.040, 404.231 569.502, 402.904 567.135 C 401.793 565.153, 399.947 564.107, 395.463 562.916 C 390.806 561.678, 389.500 560.912, 389.500 559.416 C 389.500 556.914, 395.198 556.245, 398.436 558.366 C 400.147 559.487, 401.019 559.581, 401.865 558.735 C 403.606 556.994, 403.256 556.184, 400.050 554.526 C 395.420 552.132, 389.364 552.545, 386.455 555.455 M 419 553.616 C 419 553.955, 421.250 557.095, 424 560.595 C 428.325 566.098, 429 567.568, 429 571.479 C 429 575.333, 429.295 576, 431 576 C 432.680 576, 433 575.333, 433 571.832 C 433 568.410, 433.896 566.436, 438 560.810 C 440.750 557.041, 443 553.742, 443 553.479 C 443 553.215, 441.935 553, 440.633 553 C 438.979 553, 437.468 554.205, 435.619 557 C 434.163 559.200, 432.191 560.990, 431.236 560.979 C 430.281 560.967, 428.233 559.167, 426.685 556.979 C 424.719 554.200, 423.136 553, 421.435 553 C 420.096 553, 419 553.277, 419 553.616 M 461.455 555.455 C 456.195 560.714, 459.766 565.347, 470.750 567.517 C 474.379 568.234, 475.016 570.386, 472.066 571.965 C 469.112 573.546, 466.541 573.213, 463.556 570.865 C 461.013 568.865, 460.736 568.836, 459.171 570.413 C 457.609 571.986, 457.663 572.220, 460 574.011 C 463.147 576.422, 469.669 577.463, 473.198 576.118 C 474.681 575.552, 476.680 573.892, 477.638 572.429 C 479.204 570.040, 479.231 569.502, 477.904 567.135 C 476.793 565.153, 474.947 564.107, 470.463 562.916 C 465.806 561.678, 464.500 560.912, 464.500 559.416 C 464.500 556.914, 470.198 556.245, 473.436 558.366 C 475.147 559.487, 476.019 559.581, 476.865 558.735 C 478.606 556.994, 478.256 556.184, 475.050 554.526 C 470.420 552.132, 464.364 552.545, 461.455 555.455 M 494 555 C 494 556.667, 494.667 557, 498 557 L 502 557 502 566.500 C 502 575.333, 502.140 576, 504 576 C 505.860 576, 506 575.333, 506 566.500 L 506 557 510 557 C 513.333 557, 514 556.667, 514 555 C 514 553.133, 513.333 553, 504 553 C 494.667 553, 494 553.133, 494 555 M 531 564.500 L 531 576 540 576 C 548.333 576, 549 575.852, 549 574 C 549 572.205, 548.333 572, 542.500 572 C 536.233 572, 536 571.910, 536 569.500 C 536 567.136, 536.300 567, 541.500 567 C 546.700 567, 547 566.864, 547 564.500 C 547 562.136, 546.700 562, 541.500 562 C 536.300 562, 536 561.864, 536 559.500 C 536 557.090, 536.233 557, 542.500 557 C 548.333 557, 549 556.795, 549 555 C 549 553.148, 548.333 553, 540 553 L 531 553 531 564.500 M 568 564.500 C 568 575.333, 568.116 576, 570 576 C 571.778 576, 572 575.333, 572 570 C 572 563.049, 573.532 562.130, 577 567 C 578.175 568.650, 579.750 570, 580.500 570 C 581.250 570, 582.825 568.650, 584 567 C 587.468 562.130, 589 563.049, 589 570 C 589 575.333, 589.222 576, 591 576 C 592.884 576, 593 575.333, 593 564.500 C 593 553.837, 592.861 553, 591.085 553 C 589.943 553, 587.689 555.019, 585.500 558 C 583.481 560.750, 581.231 563, 580.500 563 C 579.769 563, 577.519 560.750, 575.500 558 C 573.311 555.019, 571.057 553, 569.915 553 C 568.139 553, 568 553.837, 568 564.500 M 614.455 555.455 C 609.195 560.714, 612.766 565.347, 623.750 567.517 C 627.379 568.234, 628.016 570.386, 625.066 571.965 C 622.112 573.546, 619.541 573.213, 616.556 570.865 C 614.013 568.865, 613.736 568.836, 612.171 570.413 C 610.609 571.986, 610.663 572.220, 613 574.011 C 616.147 576.422, 622.669 577.463, 626.198 576.118 C 627.681 575.552, 629.680 573.892, 630.638 572.429 C 632.204 570.040, 632.231 569.502, 630.904 567.135 C 629.793 565.153, 627.947 564.107, 623.463 562.916 C 618.806 561.678, 617.500 560.912, 617.500 559.416 C 617.500 556.914, 623.198 556.245, 626.436 558.366 C 628.147 559.487, 629.019 559.581, 629.865 558.735 C 631.606 556.994, 631.256 556.184, 628.050 554.526 C 623.420 552.132, 617.364 552.545, 614.455 555.455 M 136.341 566.838    L 119.181 575.500 112.091 592.204    C 108.191 601.391, 105 609.153, 105 609.454    L 132.768 610 135.057 604.250    C 146.123 578.612, 154.213 558.880, 153.881 558.552 M 276 558.351    C 284.525 578.470, 287 584.612, 287 585.105    L 216.469 586 204.500 598    L 192.531 610 258.874 610    L 325.217 610 324.613 607.594    L 310.903 574.423 294.444 566.212    C 279.572 558.792, 276 557.270, 276 558.351" stroke="none" fill="#ffffff" fill-rule="evenodd"/><path d="M 210.755 454.978      C 207.064 457.882, 204.383 464.442, 203.186 473.500      C 202.432 479.204, 201.608 481.881, 200.314 482.829      C 85.654 559.827, 87.257 558.706, 84.293 563.748      C 81.852 567.901, 81.457 569.728, 81.156 578.250      C 80.967 583.612, 81.109 588, 81.472 588      C 131.280 562.436, 199.905 528, 201.219 528      C 202.319 528, 202.865 529.640, 203.299 534.250      C 204.748 549.661, 210.870 564, 216 564      C 220.780 564, 225.829 553.168, 228.535 537.109      C 229.313 532.493, 230.210 528.457, 230.528 528.139      C 324.802 574.401, 352.228 588, 352.502 588      C 353.426 588, 352.997 571.531, 351.978 567.860      C 351.422 565.858, 349.287 562.398, 347.233 560.172      L 230.349 482.023 229.096 473.832      C 227.057 460.512, 222.334 453, 216 453      C 214.498 453, 212.138 453.890, 210.755 454.978" stroke="none" fill="#a8d8ea" fill-rule="evenodd"/></svg>